{
    "asset": {
        "version": "2.0",
        "generator": "Open Asset Import Library (assimp v5.0.5eb040c7)"
    },
    "accessors": [
        {
            "bufferView": 0,
            "byteOffset": 0,
            "componentType": 5126,
            "count": 4,
            "type": "VEC3",
            "max": [
                0.5,
                3.0616171314629199e-17,
                0.5
            ],
            "min": [
                -0.5,
                -3.0616171314629199e-17,
                -0.5
            ]
        },
        {
            "bufferView": 1,
            "byteOffset": 0,
            "componentType": 5126,
            "count": 4,
            "type": "VEC3",
            "max": [
                0.0,
                1.0,
                6.123234262925839e-17
            ],
            "min": [
                0.0,
                1.0,
                6.123234262925839e-17
            ]
        },
        {
            "bufferView": 2,
            "byteOffset": 0,
            "componentType": 5126,
            "count": 4,
            "type": "VEC2",
            "max": [
                1.0,
                1.0
            ],
            "min": [
                0.0,
                0.0
            ]
        },
        {
            "bufferView": 3,
            "byteOffset": 0,
            "componentType": 5125,
            "count": 6,
            "type": "SCALAR",
            "max": [
                3
            ],
            "min": [
                0
            ]
        },
        {
            "bufferView": 4,
            "byteOffset": 0,
            "componentType": 5126,
            "count": 9223,
            "type": "VEC3",
            "max": [
                0.23198670148849488,
                0.22551220655441285,
                0.13463810086250306
            ],
            "min": [
                -0.22130289673805238,
                -0.049067020416259769,
                -0.28645089268684389
            ]
        },
        {
            "bufferView": 5,
            "byteOffset": 0,
            "componentType": 5126,
            "count": 9223,
            "type": "VEC2",
            "max": [
                0.9949300289154053,
                0.9909300208091736
            ],
            "min": [
                0.005049942992627621,
                0.0024200081825256349
            ]
        },
        {
            "bufferView": 6,
            "byteOffset": 0,
            "componentType": 5125,
            "count": 53040,
            "type": "SCALAR",
            "max": [
                9222
            ],
            "min": [
                0
            ]
        }
    ],
    "buffers": [
        {
            "byteLength": 396772,
            "uri": "result.bin"
        }
    ],
    "bufferViews": [
        {
            "buffer": 0,
            "byteOffset": 0,
            "byteLength": 48,
            "target": 34962
        },
        {
            "buffer": 0,
            "byteOffset": 48,
            "byteLength": 48,
            "target": 34962
        },
        {
            "buffer": 0,
            "byteOffset": 96,
            "byteLength": 32,
            "target": 34962
        },
        {
            "buffer": 0,
            "byteOffset": 128,
            "byteLength": 24,
            "target": 34963
        },
        {
            "buffer": 0,
            "byteOffset": 152,
            "byteLength": 110676,
            "target": 34962
        },
        {
            "buffer": 0,
            "byteOffset": 110828,
            "byteLength": 73784,
            "target": 34962
        },
        {
            "buffer": 0,
            "byteOffset": 184612,
            "byteLength": 212160,
            "target": 34963
        }
    ],
    "images": [
        {
            "uri": "d6f49e0b71e03c06d4cb4f4527900267/Face_Color.jpg"
        }
    ],
    "materials": [
        {
            "name": "505050",
            "pbrMetallicRoughness": {
                "baseColorFactor": [
                    0.3137255012989044,
                    0.3137255012989044,
                    0.3137255012989044,
                    1.0
                ],
                "metallicFactor": 0.0,
                "roughnessFactor": 0.9965524077415466
            }
        },
        {
            "name": "Skin1",
            "pbrMetallicRoughness": {
                "baseColorTexture": {
                    "index": 0
                },
                "baseColorFactor": [
                    0.6392157077789307,
                    0.6392157077789307,
                    0.6392157077789307,
                    1.0
                ],
                "metallicFactor": 0.0,
                "roughnessFactor": 0.9973693490028381
            }
        }
    ],
    "meshes": [
        {
            "name": "Plane-mesh",
            "primitives": [
                {
                    "mode": 4,
                    "material": 0,
                    "indices": 3,
                    "attributes": {
                        "POSITION": 0,
                        "NORMAL": 1,
                        "TEXCOORD_0": 2
                    }
                }
            ]
        },
        {
            "name": "Infinite-mesh",
            "primitives": [
                {
                    "mode": 4,
                    "material": 1,
                    "indices": 6,
                    "attributes": {
                        "POSITION": 4,
                        "TEXCOORD_0": 5
                    }
                }
            ]
        }
    ],
    "nodes": [
        {
            "name": "RootNode",
            "children": [
                1,
                14,
                19,
                20
            ]
        },
        {
            "name": "LightPreset",
            "matrix": [
                1.0,
                0.0,
                0.0,
                0.0,
                0.0,
                1.0,
                0.0,
                0.0,
                0.0,
                0.0,
                1.0,
                0.0,
                0.00662302365526557,
                2.8322319984436037,
                -0.08381323516368866,
                1.0
            ],
            "children": [
                2,
                6,
                10
            ]
        },
        {
            "name": "BackLight_$AssimpFbx$_Translation",
            "matrix": [
                1.0,
                0.0,
                0.0,
                0.0,
                0.0,
                1.0,
                0.0,
                0.0,
                0.0,
                0.0,
                1.0,
                0.0,
                -2.7360999584198,
                -0.6675000190734863,
                -3.1377999782562258,
                1.0
            ],
            "children": [
                3
            ]
        },
        {
            "name": "BackLight_$AssimpFbx$_Rotation",
            "matrix": [
                -0.11775824427604675,
                0.794736385345459,
                0.5954217314720154,
                0.0,
                0.7947362661361694,
                0.43493521213531496,
                -0.42335042357444765,
                0.0,
                -0.5954218506813049,
                0.4233502149581909,
                -0.6828230023384094,
                0.0,
                0.0,
                0.0,
                0.0,
                1.0
            ],
            "children": [
                4
            ]
        },
        {
            "name": "BackLight_$AssimpFbx$_PostRotation",
            "matrix": [
                1.0,
                -0.0,
                0.0,
                -0.0,
                -0.0,
                -4.371138828673793e-8,
                1.0,
                0.0,
                0.0,
                -1.0,
                -4.371138828673793e-8,
                -0.0,
                -0.0,
                0.0,
                -0.0,
                1.0
            ],
            "children": [
                5
            ]
        },
        {
            "name": "BackLight"
        },
        {
            "name": "KeyLight_$AssimpFbx$_Translation",
            "matrix": [
                1.0,
                0.0,
                0.0,
                0.0,
                0.0,
                1.0,
                0.0,
                0.0,
                0.0,
                0.0,
                1.0,
                0.0,
                -2.42549991607666,
                0.4447999894618988,
                2.42549991607666,
                1.0
            ],
            "children": [
                7
            ]
        },
        {
            "name": "KeyLight_$AssimpFbx$_Rotation",
            "matrix": [
                0.8176450729370117,
                0.22988826036453248,
                0.5278332829475403,
                0.0,
                0.22988824546337129,
                0.7101882696151733,
                -0.6654201745986939,
                0.0,
                -0.5278332829475403,
                0.6654201745986939,
                0.5278332829475403,
                0.0,
                0.0,
                0.0,
                0.0,
                1.0
            ],
            "children": [
                8
            ]
        },
        {
            "name": "KeyLight_$AssimpFbx$_PostRotation",
            "matrix": [
                1.0,
                -0.0,
                0.0,
                -0.0,
                -0.0,
                -4.371138828673793e-8,
                1.0,
                0.0,
                0.0,
                -1.0,
                -4.371138828673793e-8,
                -0.0,
                -0.0,
                0.0,
                -0.0,
                1.0
            ],
            "children": [
                9
            ]
        },
        {
            "name": "KeyLight"
        },
        {
            "name": "FillLight_$AssimpFbx$_Translation",
            "matrix": [
                1.0,
                0.0,
                0.0,
                0.0,
                0.0,
                1.0,
                0.0,
                0.0,
                0.0,
                0.0,
                1.0,
                0.0,
                6.849699974060059,
                2.9579999446868898,
                0.0,
                1.0
            ],
            "children": [
                11
            ]
        },
        {
            "name": "FillLight_$AssimpFbx$_Rotation",
            "matrix": [
                0.3981274366378784,
                -0.48951196670532229,
                -0.7758044600486755,
                0.0,
                -0.48951199650764468,
                0.6018725633621216,
                -0.6309733986854553,
                0.0,
                0.7758044600486755,
                0.6309733986854553,
                -2.758072348285623e-8,
                0.0,
                0.0,
                0.0,
                0.0,
                1.0
            ],
            "children": [
                12
            ]
        },
        {
            "name": "FillLight_$AssimpFbx$_PostRotation",
            "matrix": [
                1.0,
                -0.0,
                0.0,
                -0.0,
                -0.0,
                -4.371138828673793e-8,
                1.0,
                0.0,
                0.0,
                -1.0,
                -4.371138828673793e-8,
                -0.0,
                -0.0,
                0.0,
                -0.0,
                1.0
            ],
            "children": [
                13
            ]
        },
        {
            "name": "FillLight"
        },
        {
            "name": "CameraPreset",
            "matrix": [
                1.0,
                0.0,
                0.0,
                0.0,
                0.0,
                1.0,
                0.0,
                0.0,
                0.0,
                0.0,
                1.0,
                0.0,
                0.00662302365526557,
                2.8322319984436037,
                -0.08381323516368866,
                1.0
            ],
            "children": [
                15
            ]
        },
        {
            "name": "OverCamera_$AssimpFbx$_Translation",
            "matrix": [
                1.0,
                0.0,
                0.0,
                0.0,
                0.0,
                1.0,
                0.0,
                0.0,
                0.0,
                0.0,
                1.0,
                0.0,
                -0.12032752484083176,
                -2.4901251792907717,
                0.5007137656211853,
                1.0
            ],
            "children": [
                16
            ]
        },
        {
            "name": "OverCamera_$AssimpFbx$_Rotation",
            "matrix": [
                0.9723702073097229,
                6.529607787797431e-8,
                0.23344415426254273,
                0.0,
                0.054149121046066287,
                0.9727258682250977,
                -0.22554883360862733,
                0.0,
                -0.2270771861076355,
                0.23195776343345643,
                0.9458496570587158,
                0.0,
                0.0,
                0.0,
                0.0,
                1.0
            ],
            "children": [
                17
            ]
        },
        {
            "name": "OverCamera_$AssimpFbx$_PostRotation",
            "matrix": [
                -4.371138828673793e-8,
                -0.0,
                -1.0,
                -0.0,
                -0.0,
                1.0,
                -0.0,
                -0.0,
                1.0,
                -0.0,
                -4.371138828673793e-8,
                -0.0,
                -0.0,
                -0.0,
                -0.0,
                1.0
            ],
            "children": [
                18
            ]
        },
        {
            "name": "OverCamera"
        },
        {
            "name": "Plane",
            "mesh": 0
        },
        {
            "name": "Infinite_$AssimpFbx$_Translation",
            "matrix": [
                1.0,
                0.0,
                0.0,
                0.0,
                0.0,
                1.0,
                0.0,
                0.0,
                0.0,
                0.0,
                1.0,
                0.0,
                0.00009999999747378752,
                0.29510000348091128,
                0.004399999976158142,
                1.0
            ],
            "children": [
                21
            ]
        },
        {
            "name": "Infinite_$AssimpFbx$_PreRotation",
            "matrix": [
                1.0,
                0.0,
                0.0,
                0.0,
                0.0,
                -4.371138828673793e-8,
                -1.0,
                0.0,
                0.0,
                1.0,
                -4.371138828673793e-8,
                0.0,
                0.0,
                0.0,
                0.0,
                1.0
            ],
            "children": [
                22
            ]
        },
        {
            "name": "Infinite_$AssimpFbx$_Rotation",
            "matrix": [
                0.99988853931427,
                0.0,
                0.014930491335690022,
                0.0,
                0.0,
                1.0,
                0.0,
                0.0,
                -0.014930491335690022,
                0.0,
                0.99988853931427,
                0.0,
                0.0,
                0.0,
                0.0,
                1.0
            ],
            "children": [
                23
            ]
        },
        {
            "name": "Infinite",
            "mesh": 1
        }
    ],
    "samplers": [
        {}
    ],
    "scenes": [
        {
            "nodes": [
                0
            ]
        }
    ],
    "textures": [
        {
            "source": 0,
            "sampler": 0
        }
    ],
    "scene": 0
}